<svg width="32" height="40" viewBox="0 0 32 40" fill="none" xmlns="http://www.w3.org/2000/svg">
<path d="M31.6966 32.9858L29.9103 10.4767C29.799 9.02656 28.5726 7.89055 27.1182 7.89055H23.5898V7.73195C23.5898 3.46852 20.1213 0 15.8579 0C11.5944 0 8.12593 3.46852 8.12593 7.73195V7.89055H4.59765C3.1432 7.89055 1.91671 9.02648 1.80578 10.4737L0.0189002 32.9888C-0.119381 34.7916 0.506009 36.5863 1.7346 37.9127C2.9632 39.2391 4.70484 40 6.51288 40H25.2028C27.0108 40 28.7525 39.2392 29.9812 37.9127C31.2098 36.5863 31.8351 34.7916 31.6966 32.9858ZM10.4689 7.73195C10.4689 4.76047 12.8865 2.34297 15.8579 2.34297C18.8293 2.34297 21.2469 4.76055 21.2469 7.73195V7.89055H10.4689V7.73195ZM28.2622 36.3207C27.4639 37.1824 26.3775 37.657 25.2028 37.657H6.51296C5.33827 37.657 4.25187 37.1824 3.45359 36.3207C2.65538 35.4589 2.26523 34.3392 2.35492 33.1711L4.14163 10.6559C4.15976 10.419 4.36007 10.2335 4.59765 10.2335H8.12593V13.1191C8.12593 13.766 8.65046 14.2905 9.29741 14.2905C9.94437 14.2905 10.4689 13.766 10.4689 13.1191V10.2335H21.2469V13.1191C21.2469 13.766 21.7714 14.2905 22.4184 14.2905C23.0653 14.2905 23.5898 13.766 23.5898 13.1191V10.2335H27.1182C27.3557 10.2335 27.556 10.4191 27.5744 10.659L29.3608 33.168C29.4506 34.3392 29.0604 35.4588 28.2622 36.3207Z" fill="#C4C4C4"/>
</svg>
