<svg width="21" height="14" viewBox="0 0 21 14" fill="none" xmlns="http://www.w3.org/2000/svg">
<path d="M18.8125 0H2.18748C0.981748 0 0 0.981748 0 2.18752V11.8125C0 13.0183 0.981748 14 2.18748 14H18.8124C20.0182 14 20.9999 13.0183 20.9999 11.8125V2.18752C21 0.981748 20.0182 0 18.8125 0ZM20.125 11.8125C20.125 12.5361 19.5361 13.125 18.8125 13.125H2.18748C1.46384 13.125 0.874985 12.5361 0.874985 11.8125V2.18752C0.874985 1.46389 1.46384 0.875026 2.18748 0.875026H18.8124C19.5361 0.875026 20.1249 1.46389 20.1249 2.18752V11.8125H20.125Z" fill="#69BEA5"/>
<path d="M20.5624 2.625H0.437513C0.196013 2.625 0 2.82101 0 3.06251V5.68751C0 5.92901 0.196013 6.12502 0.437513 6.12502H20.5625C20.804 6.12502 21 5.92901 21 5.68751V3.06251C21 2.82101 20.8039 2.625 20.5624 2.625ZM20.125 5.25H0.874985V3.49999H20.1249V5.25H20.125Z" fill="#69BEA5"/>
<path d="M8.3125 8.75H3.06251C2.82101 8.75 2.625 8.94601 2.625 9.18751C2.625 9.42901 2.82101 9.62498 3.06251 9.62498H8.3125C8.554 9.62498 8.75002 9.42897 8.75002 9.18747C8.75002 8.94597 8.554 8.75 8.3125 8.75Z" fill="#69BEA5"/>
<path d="M8.3125 10.5H3.06251C2.82101 10.5 2.625 10.696 2.625 10.9375C2.625 11.179 2.82101 11.375 3.06251 11.375H8.3125C8.554 11.375 8.75002 11.179 8.75002 10.9375C8.74997 10.696 8.554 10.5 8.3125 10.5Z" fill="#69BEA5"/>
<path d="M17.0625 7.875H16.1875C15.4639 7.875 14.875 8.46386 14.875 9.1875V10.0625C14.875 10.7861 15.4639 11.375 16.1875 11.375H17.0625C17.7861 11.375 18.375 10.7861 18.375 10.0625V9.1875C18.375 8.4639 17.7861 7.875 17.0625 7.875ZM17.5 10.0625C17.5 10.304 17.304 10.5 17.0625 10.5H16.1875C15.946 10.5 15.75 10.304 15.75 10.0625V9.18754C15.75 8.94604 15.946 8.75002 16.1875 8.75002H17.0625C17.304 8.75002 17.5 8.94604 17.5 9.18754V10.0625Z" fill="#69BEA5"/>
</svg>
