<svg width="25" height="25" viewBox="0 0 25 25" fill="none" xmlns="http://www.w3.org/2000/svg">
<path d="M24.3599 20.2342L4.76661 0.640889C3.91209 -0.21363 2.52671 -0.21363 1.67352 0.640889L0.640889 1.67192C-0.21363 2.52671 -0.21363 3.91209 0.640889 4.76528L20.2342 24.3586C21.089 25.2131 22.4744 25.2131 23.3276 24.3586L24.3586 23.3276C25.2147 22.4744 25.2147 21.0887 24.3599 20.2342Z" fill="#69BEA5"/>
<path d="M20.2342 0.641482L0.640889 20.2348C-0.21363 21.0893 -0.21363 22.475 0.640889 23.3282L1.67192 24.3592C2.52671 25.2137 3.91209 25.2137 4.76528 24.3592L24.3599 4.76721C25.2147 3.91269 25.2147 2.5273 24.3599 1.67412L23.3289 0.643085C22.4744 -0.213036 21.089 -0.213036 20.2342 0.641482Z" fill="#69BEA5"/>
</svg>
