<svg width="14" height="14" viewBox="0 0 14 14" fill="none" xmlns="http://www.w3.org/2000/svg">
<path d="M10.7687 10.6793C10.2311 9.22322 8.71631 8.24597 6.99991 8.24597C5.28351 8.24597 3.76871 9.22602 3.23111 10.6821C3.17777 10.8275 3.25235 10.9886 3.39771 11.0419C3.54306 11.0953 3.70417 11.0207 3.75751 10.8753C4.19991 9.63764 5.51591 8.806 6.99991 8.806C8.48391 8.806 9.78591 9.64604 10.2423 10.8725C10.2957 11.0179 10.4568 11.0925 10.6021 11.0391C10.7475 10.9858 10.8221 10.8247 10.7687 10.6793Z" fill="#B82F2F"/>
<path d="M7 0C3.13401 0 0 3.13401 0 7C0 10.866 3.13401 14 7 14C10.866 14 14 10.866 14 7C14 3.13401 10.866 0 7 0ZM7 13.44C3.4433 13.44 0.56 10.5567 0.56 7C0.56 3.4433 3.4433 0.56 7 0.56C10.5567 0.56 13.44 3.4433 13.44 7C13.44 10.5567 10.5567 13.44 7 13.44Z" fill="#B82F2F"/>
<path d="M9.85323 3.72119C9.27331 3.72119 8.80322 4.19128 8.80322 4.7712C8.80322 5.35112 9.27331 5.82121 9.85323 5.82121C10.4331 5.82121 10.9032 5.35112 10.9032 4.7712C10.9032 4.19128 10.4331 3.72119 9.85323 3.72119ZM9.85323 5.2612C9.5826 5.2612 9.36322 5.04182 9.36322 4.7712C9.36322 4.50058 9.5826 4.2812 9.85323 4.2812C10.1238 4.2812 10.3432 4.50058 10.3432 4.7712C10.3432 5.04182 10.1238 5.2612 9.85323 5.2612Z" fill="#B82F2F"/>
<path d="M4.14668 3.72119C3.56677 3.72119 3.09668 4.19128 3.09668 4.7712C3.09668 5.35112 3.56677 5.82121 4.14668 5.82121C4.7266 5.82121 5.19669 5.35112 5.19669 4.7712C5.19669 4.19128 4.7266 3.72119 4.14668 3.72119ZM4.14668 5.2612C3.87606 5.2612 3.65668 5.04182 3.65668 4.7712C3.65668 4.50058 3.87606 4.2812 4.14668 4.2812C4.4173 4.2812 4.63668 4.50058 4.63668 4.7712C4.63668 5.04182 4.4173 5.2612 4.14668 5.2612Z" fill="#B82F2F"/>
</svg>
